<svg width="203" height="203" viewBox="0 0 203 203" fill="none" xmlns="http://www.w3.org/2000/svg"><g clip-path="url(#clip0_509_398)"><rect width="203" height="203" rx="30" fill="black"/><path d="M85.436 148.86V115.452H101.052L115.004 148.86H138.3L121.916 111.996C131.9 107.26 137.404 97.788 137.404 84.86C137.404 65.02 125.628 54.268 101.308 54.14H64.7V148.86H85.436ZM85.436 72.444H101.308C111.932 72.444 115.516 78.204 115.516 84.86C115.516 91.644 111.804 97.532 101.18 97.532H85.436V72.444Z" fill="#FFFBF4"/><path d="M85.436 148.86V115.452H101.052L115.004 148.86H138.3L121.916 111.996C131.9 107.26 137.404 97.788 137.404 84.86C137.404 65.02 125.628 54.268 101.308 54.14H64.7V148.86H85.436ZM85.436 72.444H101.308C111.932 72.444 115.516 78.204 115.516 84.86C115.516 91.644 111.804 97.532 101.18 97.532H85.436V72.444Z" fill="url(#paint0_radial_509_398)" fill-opacity="0.9"/><path d="M85.436 148.86V115.452H101.052L115.004 148.86H138.3L121.916 111.996C131.9 107.26 137.404 97.788 137.404 84.86C137.404 65.02 125.628 54.268 101.308 54.14H64.7V148.86H85.436ZM85.436 72.444H101.308C111.932 72.444 115.516 78.204 115.516 84.86C115.516 91.644 111.804 97.532 101.18 97.532H85.436V72.444Z" fill="url(#paint1_radial_509_398)" fill-opacity="0.3"/><path d="M85.436 148.86V115.452H101.052L115.004 148.86H138.3L121.916 111.996C131.9 107.26 137.404 97.788 137.404 84.86C137.404 65.02 125.628 54.268 101.308 54.14H64.7V148.86H85.436ZM85.436 72.444H101.308C111.932 72.444 115.516 78.204 115.516 84.86C115.516 91.644 111.804 97.532 101.18 97.532H85.436V72.444Z" fill="url(#paint2_radial_509_398)" fill-opacity="0.2"/></g><defs><radialGradient id="paint0_radial_509_398" cx="0" cy="0" r="1" gradientUnits="userSpaceOnUse" gradientTransform="translate(96.5 49.5) rotate(46.3479) scale(60.1207 56.7971)"><stop stop-color="#42FF00"/><stop offset="1" stop-color="white" stop-opacity="0"/></radialGradient><radialGradient id="paint1_radial_509_398" cx="0" cy="0" r="1" gradientUnits="userSpaceOnUse" gradientTransform="translate(122 99.5) rotate(164.923) scale(79.2634 75.6743)"><stop stop-color="#95FF71"/><stop offset="0.572917" stop-opacity="0"/></radialGradient><radialGradient id="paint2_radial_509_398" cx="0" cy="0" r="1" gradientUnits="userSpaceOnUse" gradientTransform="translate(78.616 103.581) rotate(85.4706) scale(99.2479 77.381)"><stop stop-color="#FFC700"/><stop offset="1" stop-color="#FFC700" stop-opacity="0"/></radialGradient><clipPath id="clip0_509_398"><rect width="203" height="203" fill="white"/></clipPath></defs></svg>
